# xmcd
#
# Track frame offsets:
# 150
# 14818
# 32264
# 45341
# 59028
# 71836
# 85982
# 100395
# 116107
# 132059
# 146714
# 159435
# 174626
# 191041
# 203859
# 217076
# 230790
# 243184
# 258836
# 272519
# 284477
# 295915
#
# Disc length: 4131 seconds
#
# Revision: 0
# Processed by: cddbd v1.4PL0 Copyright (c) Steve Scherf et al.
# Submitted via: Audion 3.0.2 (http://www.panic.com/audion/)
#
DISCID=57102116
DTITLE=Champion Jack Dupree - Natural and soulful - Champion of the blues
DYEAR=1900
DGENRE=
TTITLE0=Seafood blues
TTITLE1=Death of Big Bill Broonzy
TTITLE2=Don't leave me, Mary
TTITLE3=Rampart street special
TTITLE4=How long blues
TTITLE5=Bad life
TTITLE6=Mother-in-law blues
TTITLE7=Slow drag
TTITLE8=Dennis rag
TTITLE9=Bad luck bound to change
TTITLE10=I had a dream
TTITLE11=Roll me over roll me slow
TTITLE12=Reminiscin'with Champion Jack
TTITLE13=That's all right
TTITLE14=Daybreak stomp
TTITLE15=House rent party
TTITLE16=Snaps drinking woman
TTITLE17=One sweet letter from you
TTITLE18=New vicksburg blues
TTITLE19=When things go wrong
TTITLE20=Johnson Street boogie woogie
TTITLE21=Misery blues
EXTD=
EXTT0=
EXTT1=
EXTT2=
EXTT3=
EXTT4=
EXTT5=
EXTT6=
EXTT7=
EXTT8=
EXTT9=
EXTT10=
EXTT11=
EXTT12=
EXTT13=
EXTT14=
EXTT15=
EXTT16=
EXTT17=
EXTT18=
EXTT19=
EXTT20=
EXTT21=
PLAYORDER=
